<?xml version="1.0" encoding="UTF-8"?><svg xmlns="http://www.w3.org/2000/svg" viewBox="0 0 1787.79 721.36"><defs><style>.c{fill:#fff;}</style></defs><g id="a"><g><path class="c" d="M0,642.31H17.15c11.55,0,16.45-3.5,16.45-20.3v-179.9c0-16.8-4.9-20.3-16.45-20.3H0v-13.3H101.85c52.15,0,92.05,13.3,92.05,71.4,0,47.25-39.55,74.2-103.95,74.2h-18.2v67.9c0,16.8,4.9,20.3,16.45,20.3h20.65v13.3H0v-13.3Zm95.2-102.9c32.9,0,57.75-17.85,57.75-59.5,0-33.25-11.2-57.4-51.8-57.4h-29.4v116.9h23.45Z"/><path class="c" d="M196,642.31h9.1c14,0,16.45-10.15,21-22.75l74.55-211.05h27.3l73.85,211.05c4.55,12.6,7,22.75,21,22.75h9.1v13.3h-92.75v-13.3h9.45c11.55,0,15.75-2.8,15.75-8.4,0-4.55-2.45-12.95-4.9-20.3l-19.6-56h-72.8l-19.25,56c-2.45,7.35-4.9,15.75-4.9,20.3,0,5.6,4.2,8.4,15.75,8.4h9.45v13.3h-72.1v-13.3Zm138.95-99.4l-31.85-91.7-31.15,91.7h63Z"/><path class="c" d="M462,642.31h17.15c11.55,0,16.45-3.5,16.45-20.3v-179.9c0-16.8-4.9-20.3-16.45-20.3h-17.15v-13.3h120.05c28.7,0,76.3,10.85,76.3,62.65,0,36.05-29.75,54.95-50.4,62.65,12.6,35.7,34.3,65.1,51.8,88.55,8.05,10.85,16.45,19.95,28,19.95h14v13.3h-64.75c-22.75-27.3-49-72.1-64.05-108.85h-39.2v75.25c0,16.8,4.9,20.3,16.45,20.3h18.9v13.3h-107.1v-13.3Zm92.75-110.25c39.2,0,62.65-17.5,62.65-57.4,0-44.1-30.45-52.15-56.35-52.15h-27.3v109.55h21Z"/><path class="c" d="M714,642.31h9.1c14,0,16.45-10.15,21-22.75l74.55-211.05h27.3l73.85,211.05c4.55,12.6,7,22.75,21,22.75h9.1v13.3h-92.75v-13.3h9.45c11.55,0,15.75-2.8,15.75-8.4,0-4.55-2.45-12.95-4.9-20.3l-19.6-56h-72.8l-19.25,56c-2.45,7.35-4.9,15.75-4.9,20.3,0,5.6,4.2,8.4,15.75,8.4h9.45v13.3h-72.1v-13.3Zm138.95-99.4l-31.85-91.7-31.15,91.7h63Z"/><path class="c" d="M979.99,642.31h17.15c11.55,0,16.45-3.5,16.45-20.3v-179.9c0-16.8-4.9-20.3-16.45-20.3h-17.15v-13.3h110.6c76.65,0,127.75,41.3,127.75,117.95s-41.3,129.15-142.8,129.15h-95.55v-13.3Zm96.6-.35c81.2,0,99.4-47.95,99.4-116.55,0-73.85-27.65-102.9-111.65-102.9h-12.6v199.15c0,16.8,8.05,20.3,19.6,20.3h5.25Z"/><path class="c" d="M1266.64,532.06c0-73.85,44.1-128.8,118.65-128.8,78.4,0,118.65,60.55,118.65,128.8,0,71.75-46.55,128.1-118.65,128.1s-118.65-51.1-118.65-128.1Zm194.25,0c0-51.1-12.95-115.5-75.6-115.5s-75.6,57.05-75.6,115.5c0,46.2,10.5,114.8,75.6,114.8s75.6-73.5,75.6-114.8Z"/><path class="c" d="M1548.04,642.31h17.15c11.55,0,16.45-3.5,16.45-20.3v-179.9c0-16.8-4.9-20.3-16.45-20.3h-17.15v-13.3h120.05c28.7,0,76.3,10.85,76.3,62.65,0,36.05-29.75,54.95-50.4,62.65,12.6,35.7,34.3,65.1,51.8,88.55,8.05,10.85,16.45,19.95,28,19.95h14v13.3h-64.75c-22.75-27.3-49-72.1-64.05-108.85h-39.2v75.25c0,16.8,4.9,20.3,16.45,20.3h18.9v13.3h-107.1v-13.3Zm92.75-110.25c39.2,0,62.65-17.5,62.65-57.4,0-44.1-30.45-52.15-56.35-52.15h-27.3v109.55h21Z"/></g></g><g id="b"><g><circle class="c" cx="632.26" cy="178.44" r="38.34"/><circle class="c" cx="884.44" cy="38.34" r="38.34"/><circle class="c" cx="1136.62" cy="178.44" r="38.34"/><path class="c" d="M689.77,204.99c33.92-20.65,179.92-112.08,179.92-112.08,0,0,4.42-6.21,14.01-6.06s219,132.88,219,132.88c0,0,16.22,10.32,28.02,11.8s44.24,0,44.24,0c0,0-5.9,29.49-16.22,30.97s-191.72,1.47-191.72,1.47v-32.44h72.26l4.42-2.95-146-91.43s-7.37-5.9-13.27-5.9c-7.37,0-19.23,8.85-19.23,8.85l-138.56,87.01-2.95,4.42h76.69l-.69,33.92s-174.8,0-186.6-1.47c-11.8-1.47-22.12-33.92-22.12-33.92,0,0,21.27,3.56,41.29,0,20.64-3.66,40.3-14.59,57.52-25.07Z"/><path class="c" d="M1174.97,231.54s-6.23,27.97-16.22,30.97c-14.75,4.42-191.72,1.47-191.72,1.47"/><circle class="c" cx="884.44" cy="231.54" r="60.46"/></g></g></svg>